<svg width="141" height="140" viewBox="0 0 141 140" fill="none" xmlns="http://www.w3.org/2000/svg">
<g clip-path="url(#clip0_113_37)">
<rect x="0.884766" width="139.307" height="139.307" rx="16.7819" fill="#BBA0FF"/>
<ellipse cx="139.055" cy="139.958" rx="96.6715" ry="110.796" transform="rotate(-58.9615 139.055 139.958)" fill="#CDB9FF"/>
<ellipse cx="-37.4561" cy="-43.8301" rx="96.6715" ry="110.796" transform="rotate(-28.005 -37.4561 -43.8301)" fill="#CDB9FF"/>
<path d="M126.42 42.9458H129.723V49.5529H126.42V42.9458Z" fill="#FFFDFC"/>
<path d="M129.723 42.9458L138.807 45.4234V47.0752H141.285V99.1058H129.723V42.9458Z" fill="#CC8C70"/>
<path d="M142.791 15.6543H50.1758V18.6736H142.791V15.6543Z" fill="#E4E6EA"/>
<path d="M116.831 22.676C116.831 22.676 105.726 28.015 104.124 31.432C102.522 34.8489 103.056 100.057 103.056 100.057L142.653 100.558C142.653 100.558 142.893 81.994 142.788 64.4236C142.697 49.259 144.909 34.968 144.166 32.7668C142.565 28.0151 133.911 24.171 130.763 23.3168C127.616 22.4625 119.376 21.3753 116.831 22.676Z" fill="#CC7770"/>
<path d="M123.316 35.0771C122.947 35.0771 122.59 34.9393 122.249 34.6647C120.408 33.1816 119.247 30.208 118.598 27.9746C117.896 25.5626 117.623 23.4702 117.62 23.4493C117.613 23.3923 117.653 23.3403 117.71 23.333C117.767 23.3253 117.819 23.3658 117.826 23.4228C117.837 23.5056 118.929 31.7234 122.38 34.5027C122.819 34.8566 123.266 34.9533 123.745 34.7986C126.68 33.851 129.448 23.8878 129.475 23.7873C129.491 23.732 129.548 23.6992 129.603 23.7146C129.659 23.7298 129.691 23.7871 129.676 23.8424C129.669 23.8677 128.968 26.4053 127.906 29.0292C126.472 32.5742 125.093 34.5818 123.809 34.9966C123.643 35.0503 123.478 35.0771 123.316 35.0771Z" fill="#2E4735"/>
<path d="M129.246 25.0164C129.225 25.0164 129.203 25.01 129.185 24.9966L123.193 20.653L117.972 24.6891C117.927 24.7241 117.862 24.716 117.826 24.6705C117.791 24.6251 117.8 24.5598 117.845 24.5247L123.189 20.3933L129.307 24.8284C129.353 24.8621 129.364 24.9271 129.33 24.9735C129.31 25.0016 129.278 25.0164 129.246 25.0164Z" fill="#2E4735"/>
<path d="M123.196 20.6274C123.138 20.6274 123.092 20.5808 123.092 20.5234V15.6535C123.089 15.5968 122.995 14.1405 121.46 14.1405C121.004 14.1405 120.667 14.2691 120.458 14.5227C120.101 14.9571 120.226 15.6267 120.228 15.6335C120.239 15.6898 120.202 15.7445 120.146 15.7555C120.089 15.7665 120.035 15.7301 120.024 15.6738C120.017 15.6425 119.877 14.903 120.297 14.3918C120.547 14.0871 120.938 13.9326 121.46 13.9326C123.194 13.9326 123.298 15.6313 123.299 15.6485L123.3 20.5235C123.3 20.5808 123.253 20.6274 123.196 20.6274Z" fill="#2E4735"/>
<path d="M102.469 22.676C102.469 22.676 91.3643 28.015 89.7626 31.432C88.1609 34.8489 88.6948 96.6986 88.6948 96.6986L130.873 97.2325C130.873 97.2325 131.407 37.5185 129.805 32.7668C128.203 28.015 119.55 24.171 116.402 23.3167C113.254 22.4625 105.015 21.3753 102.469 22.676Z" fill="white"/>
<path d="M108.943 35.0771C108.574 35.0771 108.217 34.9393 107.876 34.6647C106.035 33.1816 104.874 30.208 104.225 27.9746C103.523 25.5626 103.25 23.4702 103.247 23.4493C103.24 23.3923 103.28 23.3403 103.337 23.333C103.394 23.3253 103.446 23.3658 103.453 23.4228C103.464 23.5056 104.556 31.7234 108.007 34.5027C108.446 34.8566 108.893 34.9533 109.372 34.7986C112.308 33.8507 115.075 23.8878 115.102 23.7873C115.118 23.732 115.175 23.6992 115.23 23.7146C115.286 23.7298 115.318 23.7871 115.303 23.8424C115.296 23.8677 114.595 26.4053 113.533 29.0292C112.099 32.5741 110.72 34.5818 109.436 34.9966C109.27 35.0503 109.105 35.0771 108.943 35.0771Z" fill="#2E4735"/>
<path d="M114.881 25.0164C114.859 25.0164 114.838 25.01 114.82 24.9966L108.828 20.653L103.607 24.6891C103.562 24.7243 103.496 24.716 103.461 24.6705C103.426 24.6251 103.434 24.5598 103.48 24.5247L108.824 20.3933L114.942 24.8284C114.988 24.8621 114.999 24.9271 114.965 24.9735C114.945 25.0016 114.913 25.0164 114.881 25.0164Z" fill="#2E4735"/>
<path d="M108.826 20.6274C108.769 20.6274 108.722 20.5808 108.722 20.5234V15.6535C108.719 15.5968 108.625 14.1405 107.091 14.1405C106.635 14.1405 106.298 14.2691 106.089 14.5227C105.731 14.9571 105.857 15.6267 105.858 15.6335C105.87 15.6898 105.833 15.7445 105.776 15.7555C105.721 15.7665 105.666 15.7301 105.654 15.6738C105.648 15.6425 105.508 14.903 105.928 14.3918C106.178 14.0871 106.569 13.9326 107.091 13.9326C108.825 13.9326 108.929 15.6313 108.93 15.6485L108.93 20.5235C108.93 20.5808 108.884 20.6274 108.826 20.6274Z" fill="#2E4735"/>
<path d="M91.6999 22.676C91.6999 22.676 80.5948 28.015 78.9931 31.432C77.3914 34.8489 77.9253 105.038 77.9253 105.038L120.103 105.572C120.103 105.572 120.637 37.5184 119.036 32.7667C117.434 28.0149 108.78 24.1709 105.632 23.3166C102.485 22.4625 94.2456 21.3753 91.6999 22.676Z" fill="#9C4A43"/>
<path d="M98.1867 35.0771C97.8184 35.0771 97.4615 34.9393 97.1206 34.6647C95.2793 33.1816 94.1184 30.208 93.4688 27.9746C92.7672 25.5626 92.4937 23.4702 92.4911 23.4493C92.4838 23.3923 92.524 23.3403 92.581 23.333C92.6382 23.3253 92.69 23.3658 92.6973 23.4228C92.708 23.5056 93.8004 31.7234 97.2511 34.5027C97.6905 34.8566 98.1371 34.9533 98.6163 34.7986C101.551 33.851 104.319 23.8878 104.347 23.7873C104.362 23.732 104.419 23.6992 104.474 23.7146C104.53 23.7298 104.562 23.7871 104.547 23.8424C104.54 23.8677 103.839 26.4053 102.777 29.0292C101.343 32.5742 99.9644 34.5818 98.6801 34.9966C98.5137 35.0503 98.3491 35.0771 98.1867 35.0771Z" fill="#2E4735"/>
<path d="M104.121 25.0164C104.1 25.0164 104.078 25.01 104.06 24.9966L98.068 20.653L92.8473 24.6891C92.8019 24.7241 92.7365 24.716 92.7014 24.6705C92.6663 24.6251 92.6746 24.5598 92.72 24.5247L98.064 20.3933L104.182 24.8284C104.228 24.8621 104.239 24.9271 104.205 24.9735C104.185 25.0016 104.153 25.0164 104.121 25.0164Z" fill="#2E4735"/>
<path d="M98.0666 20.6274C98.0092 20.6274 97.9626 20.5808 97.9626 20.5234V15.6535C97.9596 15.5968 97.8655 14.1405 96.3314 14.1405C95.8753 14.1405 95.5381 14.2691 95.3293 14.5227C94.9716 14.9571 95.0974 15.6267 95.0986 15.6335C95.1097 15.6898 95.073 15.7445 95.0167 15.7555C94.9608 15.7665 94.9059 15.7301 94.8947 15.6738C94.8885 15.6425 94.748 14.903 95.1679 14.3918C95.418 14.0871 95.8096 13.9326 96.3314 13.9326C98.0653 13.9326 98.1696 15.6313 98.1704 15.6485L98.1706 20.5235C98.1705 20.5808 98.124 20.6274 98.0666 20.6274Z" fill="#2E4735"/>
<path d="M80.2741 22.366C80.2741 22.366 69.169 27.705 67.5673 31.1219C65.9656 34.5388 66.4995 113.449 66.4995 113.449H79.0996L108.678 113.983C108.678 113.983 109.212 37.2083 107.61 32.4567C106.008 27.705 97.3543 23.8609 94.2067 23.0067C91.0589 22.1524 82.8198 21.0653 80.2741 22.366Z" fill="#9E554F"/>
<path d="M86.0754 35.0771C85.7072 35.0771 85.3502 34.9393 85.0093 34.6647C83.1679 33.1816 82.0071 30.208 81.3574 27.9746C80.6558 25.5626 80.3824 23.4702 80.3798 23.4493C80.3725 23.3923 80.4126 23.3403 80.4696 23.333C80.5267 23.3253 80.5787 23.3658 80.586 23.4228C80.5967 23.5056 81.6892 31.7234 85.1397 34.5027C85.5791 34.8566 86.0257 34.9533 86.505 34.7986C89.4404 33.8507 92.2077 23.8878 92.2353 23.7873C92.2505 23.732 92.3075 23.6992 92.363 23.7146C92.4184 23.7298 92.4509 23.7871 92.4357 23.8424C92.4288 23.8677 91.7279 26.4053 90.6661 29.0292C89.2317 32.5741 87.8531 34.5818 86.5689 34.9966C86.4026 35.0503 86.2379 35.0771 86.0754 35.0771Z" fill="#2E4735"/>
<path d="M92.0075 25.0164C91.9864 25.0164 91.9651 25.01 91.9466 24.9966L85.9546 20.653L80.734 24.6891C80.6886 24.7243 80.6233 24.716 80.5881 24.6705C80.553 24.6251 80.5614 24.5598 80.6068 24.5247L85.9507 20.3933L92.0686 24.8284C92.1151 24.8621 92.1254 24.9271 92.0917 24.9735C92.0716 25.0016 92.0397 25.0164 92.0075 25.0164Z" fill="#2E4735"/>
<path d="M85.9592 20.6274C85.9018 20.6274 85.8552 20.5808 85.8552 20.5234V15.6535C85.8522 15.5968 85.7582 14.1405 84.2241 14.1405C83.768 14.1405 83.4308 14.2691 83.2219 14.5227C82.8643 14.9571 82.99 15.6267 82.9913 15.6335C83.0023 15.6898 82.9656 15.7445 82.9093 15.7555C82.8527 15.7665 82.7985 15.7301 82.7872 15.6738C82.781 15.6425 82.6405 14.903 83.0604 14.3918C83.3107 14.0871 83.7022 13.9326 84.2241 13.9326C85.958 13.9326 86.0622 15.6313 86.063 15.6485L86.0632 20.5235C86.0632 20.5808 86.0166 20.6274 85.9592 20.6274Z" fill="#2E4735"/>
<path d="M65.8327 22.366C65.8327 22.366 54.7276 27.705 53.1259 31.1219C51.5242 34.5388 52.0581 101.901 52.0581 101.901L94.66 100.325C94.66 100.325 93.6358 93.2362 93.5679 81.6957C93.5564 79.7523 92.7977 74.7769 92.781 72.7262C92.7387 67.5111 94.4631 63.0125 94.376 57.8302C94.165 45.265 93.7996 34.3292 93.1685 32.4567C91.5668 27.705 82.9129 23.8609 79.7653 23.0067C76.6175 22.1524 68.3784 21.0653 65.8327 22.366Z" fill="#2C2F47"/>
<path d="M71.6418 35.0771C71.2735 35.0771 70.9166 34.9393 70.5757 34.6647C68.7343 33.1816 67.5735 30.208 66.9238 27.9746C66.2222 25.5626 65.9488 23.4702 65.9462 23.4493C65.9389 23.3923 65.979 23.3403 66.036 23.333C66.0932 23.3253 66.1451 23.3658 66.1524 23.4228C66.163 23.5056 67.2555 31.7234 70.7061 34.5027C71.1455 34.8566 71.5923 34.9533 72.0713 34.7986C75.0064 33.851 77.7741 23.8878 77.8017 23.7873C77.8169 23.732 77.874 23.6992 77.9294 23.7146C77.9848 23.7298 78.0174 23.7871 78.0021 23.8424C77.9952 23.8677 77.2943 26.4053 76.2325 29.0292C74.798 32.5742 73.4195 34.5818 72.1352 34.9966C71.9689 35.0503 71.8043 35.0771 71.6418 35.0771Z" fill="white"/>
<path d="M77.5779 25.0164C77.5568 25.0164 77.5355 25.01 77.517 24.9966L71.525 20.653L66.3043 24.6891C66.259 24.7241 66.1935 24.716 66.1585 24.6705C66.1233 24.6251 66.1317 24.5598 66.1771 24.5247L71.5211 20.3933L77.639 24.8284C77.6855 24.8621 77.6958 24.9271 77.6621 24.9735C77.6419 25.0016 77.6101 25.0164 77.5779 25.0164Z" fill="#2E4735"/>
<path d="M71.5237 20.6274C71.4663 20.6274 71.4198 20.5808 71.4198 20.5234V15.6535C71.4167 15.5968 71.3227 14.1405 69.7885 14.1405C69.3324 14.1405 68.9953 14.2691 68.7864 14.5227C68.4287 14.9571 68.5545 15.6267 68.5557 15.6335C68.5668 15.6898 68.5301 15.7445 68.4738 15.7555C68.4178 15.7665 68.3628 15.7301 68.3517 15.6738C68.3455 15.6425 68.205 14.903 68.6249 14.3918C68.8751 14.0871 69.2666 13.9326 69.7884 13.9326C71.5224 13.9326 71.6266 15.6313 71.6275 15.6485L71.6276 20.5235C71.6277 20.5808 71.5812 20.6274 71.5237 20.6274Z" fill="#2E4735"/>
<path d="M58.3582 23.3865C58.3582 23.3865 70.5429 23.6414 71.4095 24.0492C72.2762 24.4571 73.9076 28.3827 73.9076 28.3827C73.9076 28.3827 85.2765 34.8064 86.1942 35.877C87.1119 36.9476 89.1002 43.1674 89.1002 43.1674C89.1002 43.1674 94.1563 58.8506 94.666 68.7921C94.7352 70.1401 89.7629 96.6983 89.7629 96.6983C89.7629 96.6983 84.8686 96.4434 82.3706 94.9649L82.8294 87.2667C82.8294 87.2667 82.3754 81.4866 82.9872 78.0708C83.599 74.6549 83.1863 61.215 83.1863 60.0424C83.1863 58.8698 82.0647 55.709 81.4019 56.2698C80.7392 56.8306 81.096 61.9798 81.198 63.3562C81.2999 64.7327 79.5665 77.3252 79.5156 77.7841C79.4646 78.2429 77.3233 97.2081 77.2724 98.1258C77.2214 99.0434 77.1704 99.8082 76.7115 99.8591C76.2527 99.9101 66.1583 98.1767 64.0681 98.5336C61.9778 98.8905 60.7033 100.216 57.7463 100.318C54.7894 100.42 52.852 99.1453 50.0481 99.4002C47.2441 99.6552 44.899 99.859 44.746 99.859C44.5931 99.859 44.7719 59.8843 44.7719 59.8843C44.7719 59.8843 42.8087 76.4584 42.6557 79.4154C42.5028 82.3723 40.1066 94.7609 39.8007 95.8825C39.4948 97.004 38.934 97.7178 38.934 97.7178L30.8789 92.9766C30.8789 92.9766 33.8868 76.2546 33.9888 75.6428C34.0907 75.031 36.9457 52.65 37.6085 50.8146C38.2712 48.9792 38.934 36.7947 41.2792 34.7554C43.6243 32.7161 54.7383 27.9239 55.2482 27.567C55.7581 27.2102 58.3582 23.3865 58.3582 23.3865Z" fill="#FFE28F"/>
<path d="M59.2503 24.6421L70.5343 25.6617C70.5343 25.6617 70.8062 29.7402 69.6506 31.1677C68.4949 32.5952 64.9881 34.7025 64.9062 36.6738C64.8243 38.6451 64.8243 38.6451 64.8243 38.6451C64.8243 38.6451 63.4648 34.6345 62.1053 33.4109C60.7458 32.1873 57.7549 32.5953 59.2503 24.6421Z" fill="#FBBC05"/>
<path d="M75.2571 33.9834C75.2156 33.9834 75.1734 33.9779 75.1315 33.9666C73.4505 33.5138 69.3201 32.56 67.2756 33.4806C67.2232 33.5042 67.1616 33.4808 67.1381 33.4285C67.1145 33.3762 67.1379 33.3146 67.1902 33.2911C69.2959 32.3431 73.483 33.3073 75.1856 33.7659C75.2806 33.7915 75.3781 33.7639 75.4459 33.6918C75.5137 33.6193 75.5351 33.52 75.5032 33.4261L73.7998 28.4163C73.7813 28.3619 73.8104 28.3029 73.8648 28.2844C73.9193 28.2659 73.9781 28.2949 73.9967 28.3493L75.7001 33.3591C75.7563 33.5245 75.7171 33.7065 75.5976 33.834C75.5063 33.9313 75.3846 33.9834 75.2571 33.9834Z" fill="#2E4735"/>
<path d="M51.9457 33.447C51.9111 33.447 51.8783 33.4297 51.859 33.4003C51.8373 33.3676 51.8361 33.3255 51.8555 33.2914L55.1605 27.5157C55.1891 27.4658 55.2525 27.4487 55.3024 27.4771C55.3522 27.5056 55.3695 27.5691 55.341 27.6189L52.1379 33.2167C53.3743 33.0795 59.618 32.4257 61.6501 32.9626C61.7057 32.9773 61.7388 33.0341 61.7241 33.0896C61.7095 33.1451 61.6524 33.178 61.597 33.1636C59.4231 32.5894 52.0321 33.4378 51.9577 33.4463C51.9536 33.4469 51.9497 33.447 51.9457 33.447Z" fill="#2E4735"/>
<path d="M62.3037 97.2758C62.2495 97.2758 62.2038 97.2338 62.2001 97.1788C62.1872 96.9856 60.926 77.7845 62.539 71.519C64.1169 65.3893 64.6545 52.8965 64.5926 49.1826C64.5388 45.9559 64.592 39.3895 64.5926 39.3236C64.593 39.2665 64.6395 39.2205 64.6965 39.2205C64.6968 39.2205 64.6971 39.2205 64.6974 39.2205C64.7548 39.2209 64.801 39.2679 64.8005 39.3253C64.8 39.3912 64.7468 45.955 64.8005 49.1792C64.8464 51.9296 64.4294 65.0095 62.7403 71.5708C61.1358 77.8041 62.3946 96.972 62.4075 97.1648C62.4114 97.2221 62.368 97.2717 62.3108 97.2755C62.3084 97.2757 62.306 97.2758 62.3037 97.2758Z" fill="#2E4735"/>
<path d="M81.401 56.3744C81.3511 56.3744 81.3071 56.3383 81.2986 56.2875C81.283 56.1939 79.7502 46.8905 80.5604 42.9072C80.6583 42.4254 80.7487 41.9649 80.8348 41.5263C81.461 38.3335 81.8748 36.2243 83.4116 35.6257C84.3084 35.2764 85.0311 35.339 85.4794 35.453C85.9697 35.5777 86.2454 35.7864 86.2568 35.7951C86.3024 35.8301 86.3109 35.8954 86.276 35.9409C86.2409 35.9864 86.1756 35.9948 86.1303 35.9601C86.1279 35.9583 85.8701 35.765 85.4177 35.6518C85.0008 35.5476 84.3275 35.492 83.4872 35.8193C82.0569 36.3765 81.652 38.4412 81.039 41.5662C80.9529 42.0052 80.8624 42.4663 80.7644 42.9485C79.9619 46.8943 81.4884 56.16 81.5039 56.2531C81.5133 56.3098 81.4751 56.3633 81.4185 56.3728C81.4125 56.3739 81.4067 56.3744 81.401 56.3744Z" fill="#2E4735"/>
<path d="M44.767 60.4331C44.7647 60.4331 44.7626 60.433 44.7603 60.4329C44.703 60.4294 44.6594 60.38 44.6631 60.3227C44.6733 60.1597 45.6745 43.9736 44.8706 39.8203C44.4558 37.6773 43.4002 36.546 42.5877 35.9745C41.7107 35.3575 40.9276 35.2432 40.9198 35.2421C40.8629 35.2342 40.8232 35.1817 40.8311 35.1249C40.839 35.068 40.892 35.0283 40.9484 35.0361C40.9823 35.0409 41.7896 35.1588 42.7073 35.8044C43.5511 36.398 44.6468 37.5698 45.0748 39.7808C45.4145 41.5363 45.4834 45.5292 45.2795 51.6487C45.1278 56.2029 44.8731 60.2949 44.8706 60.3357C44.8672 60.3907 44.8215 60.4331 44.767 60.4331Z" fill="#2E4735"/>
<path d="M70.9591 59.3627C70.9237 59.3627 70.8899 59.3446 70.8707 59.3134L68.4745 55.4388C68.4598 55.4151 68.4553 55.3864 68.462 55.3594L70.0935 48.6808C70.1062 48.6284 70.1571 48.5947 70.2104 48.6028L78.1125 49.8263C78.1689 49.8351 78.2078 49.8877 78.1995 49.9442L77.0779 57.5914C77.0719 57.6321 77.0426 57.6654 77.0031 57.6765L70.9872 59.3589C70.9778 59.3614 70.9684 59.3627 70.9591 59.3627ZM68.6743 55.3665L71.0064 59.1376L76.8819 57.4944L77.9787 50.0161L70.2727 48.8229L68.6743 55.3665Z" fill="#2E4735"/>
<path d="M70.5325 25.766C70.5092 25.766 70.4857 25.7582 70.4664 25.7422L64.3134 20.6583L59.3141 24.7231C59.2695 24.7593 59.2041 24.7526 59.1679 24.708C59.1316 24.6634 59.1384 24.598 59.1829 24.5617L64.3143 20.3894L70.5986 25.5818C70.6429 25.6185 70.6492 25.684 70.6126 25.7283C70.5922 25.7532 70.5624 25.766 70.5325 25.766Z" fill="#2E4735"/>
<path d="M64.3128 20.6274C64.2554 20.6274 64.2088 20.5808 64.2088 20.5234V15.6535C64.2058 15.5968 64.1117 14.1405 62.5776 14.1405C62.1215 14.1405 61.7843 14.2691 61.5754 14.5227C61.2178 14.9571 61.3435 15.6267 61.3448 15.6335C61.3559 15.6898 61.3192 15.7445 61.2628 15.7555C61.2067 15.7665 61.1519 15.7301 61.1408 15.6738C61.1346 15.6425 60.9941 14.903 61.414 14.3918C61.6641 14.0871 62.0557 13.9326 62.5775 13.9326C64.3114 13.9326 64.4157 15.6313 64.4165 15.6485L64.4167 20.5235C64.4168 20.5808 64.3702 20.6274 64.3128 20.6274Z" fill="#2E4735"/>
<path d="M52.3006 15.6543H48.041V123.26H52.3006V15.6543Z" fill="#E4E6EA"/>
<path d="M104.443 33.8791L105.702 29.522C105.702 29.522 109.451 30.1468 112.228 40.8247C115.004 51.5028 117.717 85.5656 117.717 85.5656L111.08 87.1673L104.443 61.3322V33.8791Z" fill="#9E554F"/>
<path d="M108.697 77.9814C108.66 77.9814 108.624 77.9613 108.605 77.9261C108.595 77.9066 107.555 75.9423 106.476 73.2986C105.479 70.8561 104.243 67.3165 104.018 64.3244C103.96 63.5555 103.901 62.782 103.842 62.0099C103.468 57.0998 103.081 52.0225 103.067 48.7058C103.057 46.2896 102.838 44.203 102.627 42.1851C102.501 40.9848 102.382 39.8509 102.304 38.6517C102.091 35.396 104.013 31.4258 104.032 31.3861C104.057 31.3345 104.12 31.3134 104.171 31.3383C104.223 31.3636 104.244 31.4258 104.219 31.4775C104.2 31.5167 102.302 35.4382 102.511 38.6381C102.589 39.8332 102.708 40.9651 102.833 42.1634C103.045 44.1864 103.265 46.2783 103.275 48.7049C103.289 52.0141 103.676 57.0876 104.05 61.9941C104.109 62.7663 104.168 63.5399 104.225 64.3088C104.448 67.2732 105.676 70.7898 106.667 73.2179C107.742 75.8523 108.779 77.8091 108.789 77.8285C108.816 77.8793 108.797 77.9422 108.746 77.9691C108.73 77.9774 108.714 77.9814 108.697 77.9814Z" fill="#2E4735"/>
<path d="M140.256 28.0679C140.256 28.0679 146.544 32.5594 148.106 37.4074C150.429 44.615 155.741 77.8767 155.741 77.8767C155.741 77.8767 154.46 79.105 152.164 79.372C149.085 79.73 147.225 79.372 147.225 79.372C147.225 79.372 142.18 57.9892 140.979 49.6604C139.777 41.3316 140.256 28.0679 140.256 28.0679Z" fill="#CC7770"/>
<path d="M155.475 121.338H36.9492V125.182H155.475V121.338Z" fill="#E4E6EA"/>
<path d="M42.3669 139.051C45.4302 139.051 47.9135 136.568 47.9135 133.504C47.9135 130.441 45.4302 127.958 42.3669 127.958C39.3036 127.958 36.8203 130.441 36.8203 133.504C36.8203 136.568 39.3036 139.051 42.3669 139.051Z" fill="#302F46"/>
<path d="M42.9943 133.504H41.7392C41.098 133.504 40.5781 132.985 40.5781 132.343V125.182H44.1553V132.343C44.1554 132.985 43.6355 133.504 42.9943 133.504Z" fill="#E4E6EA"/>
<path d="M55.7224 139.051C58.7857 139.051 61.269 136.568 61.269 133.504C61.269 130.441 58.7857 127.958 55.7224 127.958C52.6591 127.958 50.1758 130.441 50.1758 133.504C50.1758 136.568 52.6591 139.051 55.7224 139.051Z" fill="#302F46"/>
<path d="M56.3516 133.504H55.0965C54.4553 133.504 53.9355 132.985 53.9355 132.343V125.182H57.5127V132.343C57.5126 132.985 56.9928 133.504 56.3516 133.504Z" fill="#E4E6EA"/>
<path d="M134.849 139.051C137.913 139.051 140.396 136.567 140.396 133.504C140.396 130.441 137.913 127.958 134.849 127.958C131.786 127.958 129.303 130.441 129.303 133.504C129.303 136.567 131.786 139.051 134.849 139.051Z" fill="#302F46"/>
<path d="M135.477 133.504H134.222C133.58 133.504 133.061 132.984 133.061 132.343V125.181H136.638V132.343C136.638 132.984 136.118 133.504 135.477 133.504Z" fill="#E4E6EA"/>
</g>
<defs>
<clipPath id="clip0_113_37">
<rect x="0.884766" width="139.307" height="139.307" rx="16.6828" fill="white"/>
</clipPath>
</defs>
</svg>
